<svg
  xmlns="http://www.w3.org/2000/svg"
  xmlns:xlink="http://www.w3.org/1999/xlink"
  fill="none"
  version="1.1"
  width="889"
  height="482"
  viewBox="0 0 889 482"
>
  <defs>
    <linearGradient
      x1="0.9465906620025635"
      y1="0.06481249630451202"
      x2="0.011530837044119835"
      y2="1.0002589225769043"
      id="master_svg0_4079_99267"
    >
      <stop offset="5.000000074505806%" stop-color="#859AC4" stop-opacity="1" />
      <stop offset="51.428574323654175%" stop-color="#536383" stop-opacity="1" />
      <stop offset="100%" stop-color="#1E273B" stop-opacity="1" />
    </linearGradient>
  </defs>
  <g style="opacity: 0.30000001192092896">
    <path
      d="M889,0L743.822,40.8696L704.194,52.029L647.5,62.1159C563.731,74.7826,495.033,90.8696,437.616,112.522L205.054,112.522L241.905,124.87C272.161,135.014,295.244,158.522,305.397,187.594C257.727,227.71,221.05,278.551,188.855,343.768L188.855,343.797C186.368,348.841,183.88,353.971,181.45,359.188L144.946,433.652L0,433.652L66.5,447.333C88.3388,451.826,107.806,464.145,121.256,482L179.57,413.594C190.302,401.536,201.264,389.739,212.43,378.116C341.207,244.174,498.244,140.725,672.087,75.4493L672.058,75.4493L747.756,49.1594L889,0Z"
      fill="url(#master_svg0_4079_99267)"
      fill-opacity="1"
    />
  </g>
</svg>
