<svg
  xmlns="http://www.w3.org/2000/svg"
  xmlns:xlink="http://www.w3.org/1999/xlink"
  fill="none"
  version="1.1"
  width="20"
  height="28.43914794921875"
  viewBox="0 0 20 28.43914794921875"
>
  <defs>
    <linearGradient
      x1="0.9465906620025635"
      y1="0.06481249630451202"
      x2="0.011530837044119835"
      y2="1.0002589225769043"
      id="master_svg0_4079_70787"
    >
      <stop offset="0%" stop-color="#AFC9FF" stop-opacity="1" />
      <stop offset="100%" stop-color="#2861D8" stop-opacity="1" />
    </linearGradient>
    <linearGradient
      x1="0.9465906620025635"
      y1="0.06481249630451202"
      x2="0.011530837044119835"
      y2="1.0002589225769043"
      id="master_svg1_4079_70787"
    >
      <stop offset="0%" stop-color="#AFC9FF" stop-opacity="1" />
      <stop offset="100%" stop-color="#2861D8" stop-opacity="1" />
    </linearGradient>
    <linearGradient
      x1="0.9465906620025635"
      y1="0.06481249630451202"
      x2="0.011530837044119835"
      y2="1.0002589225769043"
      id="master_svg2_4079_70787"
    >
      <stop offset="0%" stop-color="#AFC9FF" stop-opacity="1" />
      <stop offset="100%" stop-color="#2861D8" stop-opacity="1" />
    </linearGradient>
    <linearGradient
      x1="0.9465906620025635"
      y1="0.06481249630451202"
      x2="0.011530837044119835"
      y2="1.0002589225769043"
      id="master_svg3_4079_70787"
    >
      <stop offset="0%" stop-color="#AFC9FF" stop-opacity="1" />
      <stop offset="100%" stop-color="#2861D8" stop-opacity="1" />
    </linearGradient>
    <linearGradient
      x1="0.9465906620025635"
      y1="0.06481249630451202"
      x2="0.011530837044119835"
      y2="1.0002589225769043"
      id="master_svg4_4079_70787"
    >
      <stop offset="0%" stop-color="#AFC9FF" stop-opacity="1" />
      <stop offset="100%" stop-color="#2861D8" stop-opacity="1" />
    </linearGradient>
  </defs>
  <g>
    <g>
      <path
        d="M16.9482,-5.684341886080802e-14L3.12017,-5.684341886080802e-14C1.41826,-5.684341886080802e-14,0,1.418409999999943,0,3.120499999999943L0,25.318599999999943C0,27.020699999999945,1.41826,28.439099999999943,3.12017,28.439099999999943L5.60212,28.439099999999943C6.24034,28.439099999999943,6.80764,27.871799999999944,6.80764,27.233499999999943C6.80764,26.59519999999994,6.24034,26.027799999999942,5.60212,26.027799999999942L3.12017,26.027799999999942C2.7656,26.027799999999942,2.41104,25.744199999999942,2.41104,25.318599999999943L2.41104,3.120499999999943C2.41104,2.765899999999943,2.69469,2.4112999999999434,3.12017,2.4112999999999434L16.8773,2.4112999999999434C17.2318,2.4112999999999434,17.5864,2.6949799999999433,17.5864,3.120499999999943L17.5864,25.318599999999943C17.5864,25.673199999999945,17.3028,26.027799999999942,16.8773,26.027799999999942L11.4879,26.027799999999942C10.8497,26.027799999999942,10.2824,26.59519999999994,10.2824,27.233499999999943C10.2824,27.871799999999944,10.8497,28.439099999999943,11.4879,28.439099999999943L16.8773,28.439099999999943C18.5792,28.439099999999943,19.9975,27.020699999999945,19.9975,25.318599999999943L19.9975,3.120499999999943C20.0684,1.418409999999943,18.6501,-5.684341886080802e-14,16.9482,-5.684341886080802e-14Z"
        fill="url(#master_svg0_4079_70787)"
        fill-opacity="1"
      />
    </g>
    <g>
      <path
        d="M16.02629872970581,17.233690779541014C15.60079872970581,16.737246679541016,14.82079872970581,16.666325779541015,14.32441872970581,17.091849779541015L8.50955872970581,22.198122779541016L6.45307872970581,19.999592779541015C6.027598729705811,19.503142779541015,5.24755872970581,19.503142779541015,4.75116772970581,19.928672779541017C4.25477672970581,20.425112779541017,4.25477672970581,21.134322779541016,4.68025472970581,21.630762779541016L7.51676872970581,24.609422779541013C7.7295087297058105,24.822182779541016,8.08407872970581,24.964032779541014,8.36772872970581,24.964032779541014C8.651378729705812,24.964032779541014,8.93502872970581,24.893112779541013,9.14776872970581,24.680342779541014L15.813598729705811,18.793942779541016C16.380898729705812,18.510262779541016,16.45179872970581,17.730133779541017,16.02629872970581,17.233690779541014Z"
        fill="url(#master_svg1_4079_70787)"
        fill-opacity="1"
      />
    </g>
    <g>
      <path
        d="M7.516776477813721,11.56004592315674C7.516776477813721,10.638080923156739,6.807646477813721,9.928875923156738,5.885776477813721,9.928875923156738C4.963905477813721,9.928875923156738,4.254776477813721,10.638080923156739,4.254776477813721,11.56004592315674C4.254776477813721,12.482015923156737,4.963905477813721,13.191215923156738,5.885776477813721,13.191215923156738C6.807646477813721,13.191215923156738,7.516776477813721,12.411095923156738,7.516776477813721,11.56004592315674Z"
        fill="url(#master_svg2_4079_70787)"
        fill-opacity="1"
      />
    </g>
    <g>
      <path
        d="M10.069640594482422,13.191215923156738C10.991510594482422,13.191215923156738,11.700640594482422,12.482015923156737,11.700640594482422,11.56004592315674C11.700640594482422,10.638080923156739,10.991510594482422,9.928875923156738,10.069640594482422,9.928875923156738C9.147769594482423,9.928875923156738,8.438640594482422,10.638080923156739,8.438640594482422,11.56004592315674C8.438640594482422,12.411095923156738,9.147769594482423,13.191215923156738,10.069640594482422,13.191215923156738Z"
        fill="url(#master_svg3_4079_70787)"
        fill-opacity="1"
      />
    </g>
    <g>
      <path
        d="M15.742672826843261,11.56004592315674C15.742672826843261,10.709001923156737,15.033542826843261,9.999796423156738,14.182592826843262,9.928875923156738C13.260721826843263,9.928875923156738,12.551592826843262,10.638080923156739,12.551592826843262,11.56004592315674C12.551592826843262,11.56004592315674,12.551592826843262,11.630965923156738,12.551592826843262,11.630965923156738C12.551592826843262,12.552935923156738,13.331634826843262,13.262145923156739,14.182592826843262,13.262145923156739C15.033542826843261,13.191225923156738,15.742672826843261,12.411095923156738,15.742672826843261,11.56004592315674Z"
        fill="url(#master_svg4_4079_70787)"
        fill-opacity="1"
      />
    </g>
  </g>
</svg>
