<svg
  xmlns="http://www.w3.org/2000/svg"
  xmlns:xlink="http://www.w3.org/1999/xlink"
  fill="none"
  version="1.1"
  width="24.7208251953125"
  height="24.55657958984375"
  viewBox="0 0 24.7208251953125 24.55657958984375"
>
  <defs>
    <linearGradient
      x1="0.9465906620025635"
      y1="0.06481249630451202"
      x2="0.011530837044119835"
      y2="1.0002589225769043"
      id="master_svg0_4079_70787"
    >
      <stop offset="0%" stop-color="#AFC9FF" stop-opacity="1" />
      <stop offset="100%" stop-color="#2861D8" stop-opacity="1" />
    </linearGradient>
    <linearGradient
      x1="0.9465906620025635"
      y1="0.06481249630451202"
      x2="0.011530837044119835"
      y2="1.0002589225769043"
      id="master_svg1_4079_70787"
    >
      <stop offset="0%" stop-color="#AFC9FF" stop-opacity="1" />
      <stop offset="100%" stop-color="#2861D8" stop-opacity="1" />
    </linearGradient>
    <linearGradient
      x1="0.9465906620025635"
      y1="0.06481249630451202"
      x2="0.011530837044119835"
      y2="1.0002589225769043"
      id="master_svg2_4079_70787"
    >
      <stop offset="0%" stop-color="#AFC9FF" stop-opacity="1" />
      <stop offset="100%" stop-color="#2861D8" stop-opacity="1" />
    </linearGradient>
    <linearGradient
      x1="0.9465906620025635"
      y1="0.06481249630451202"
      x2="0.011530837044119835"
      y2="1.0002589225769043"
      id="master_svg3_4079_70787"
    >
      <stop offset="0%" stop-color="#AFC9FF" stop-opacity="1" />
      <stop offset="100%" stop-color="#2861D8" stop-opacity="1" />
    </linearGradient>
  </defs>
  <g>
    <g>
      <path
        d="M23.9974,19.7143L24.0689,19.7857C24.9259,20.7857,24.9973,22.3571,23.926,23.4286C22.9975,24.7143,21.1406,24.9286,19.855,23.9286L19.7836,23.8571L19.5693,23.6429L17.9267,22.0714C16.2126,23.1429,14.1413,23.7143,11.9273,23.7143C5.35657,23.7143,0,18.3571,0,11.8571C0,5.28571,5.35657,0,11.9273,0C18.5694,0,23.8546,5.35714,23.8546,11.8571C23.8546,14,23.2832,16.0714,22.2119,17.8571C22.2119,17.8571,22.4976,18.2143,23.7832,19.5L23.9974,19.7143ZM2.35693,11.7857C2.35693,17.0715,6.64219,21.4286,11.9988,21.4286C17.3553,21.4286,21.6406,17.1429,21.6406,11.7857C21.6406,6.4286,17.3553,2.14288,11.9988,2.14288C6.71361,2.14288,2.35693,6.50003,2.35693,11.7857Z"
        fill-rule="evenodd"
        fill="url(#master_svg0_4079_70787)"
        fill-opacity="1"
      />
    </g>
    <g>
      <path
        d="M15.569759968566895,8.071429252624512L8.641931968566894,8.071429252624512C8.141985968566894,8.071429252624512,7.7134599685668945,8.428572252624512,7.7134599685668945,8.857143252624512C7.7134599685668945,9.285719252624512,8.141985968566894,9.571429252624512,8.641931968566894,9.571429252624512L15.641179968566895,9.571429252624512C16.141129968566894,9.571429252624512,16.569659968566896,9.357139252624512,16.569659968566896,8.928572252624512C16.498229968566896,8.500000252624512,16.069709968566894,8.071429252624512,15.569759968566895,8.071429252624512Z"
        fill="url(#master_svg1_4079_70787)"
        fill-opacity="1"
      />
    </g>
    <g>
      <path
        d="M15.569758822174073,14.285713195800781L8.427668822174072,14.285713195800781C7.999143822174072,14.285713195800781,7.642038822174072,14.714284195800781,7.642038822174072,15.071427195800782C7.642038822174072,15.428573195800782,7.999143822174072,15.785713195800781,8.427668822174072,15.785713195800781L15.569758822174073,15.785713195800781C15.998288822174072,15.785713195800781,16.426808822174074,15.428573195800782,16.426808822174074,15.142856195800782C16.426808822174074,14.785713195800781,15.998288822174072,14.285713195800781,15.569758822174073,14.285713195800781Z"
        fill="url(#master_svg2_4079_70787)"
        fill-opacity="1"
      />
    </g>
    <g>
      <path
        d="M15.569758822174073,11.285714149475098L8.570510822174072,11.285714149475098C8.070564822174072,11.285714149475098,7.642038822174072,11.642857149475098,7.642038822174072,12.000000149475097C7.642038822174072,12.428574149475098,8.141985822174073,12.785714149475098,8.641931822174072,12.785714149475098L15.569758822174073,12.785714149475098C16.06970882217407,12.785714149475098,16.498238822174073,12.428574149475098,16.498238822174073,12.071428149475098C16.498238822174073,11.642857149475098,16.06970882217407,11.285714149475098,15.569758822174073,11.285714149475098Z"
        fill="url(#master_svg3_4079_70787)"
        fill-opacity="1"
      />
    </g>
  </g>
</svg>
