<svg width="530" height="140" xmlns="http://www.w3.org/2000/svg" xml:space="preserve" enable-background="new 0 0 1000 1000" version="1.1">

 <g>
  <title>Layer 1</title>
  <path fill="#00011b" stroke="null" id="svg_2" d="m-1,-3l533,0l0,149l-533,0l0,-149z" opacity="undefined"/>
  <polygon id="svg_3" points="470.218994140625,29.1400146484375 491.43402099609375,29.1400146484375 491.43402099609375,31.141998291015625 472.43402099609375,31.141998291015625 472.43402099609375,42.941986083984375 489.51702880859375,42.941986083984375 489.51702880859375,44.944000244140625 472.43402099609375,44.944000244140625 472.43402099609375,56.9580078125 491.64599609375,56.9580078125 491.64599609375,58.959991455078125 470.218994140625,58.959991455078125 " fill="#FFFFFF" clip-rule="evenodd" fill-rule="evenodd"/>
  <polygon id="svg_4" points="402.0570068359375,29.1400146484375 404.27197265625,29.1400146484375 404.27197265625,42.9849853515625 423.35699462890625,42.9849853515625 423.35699462890625,29.1400146484375 425.572021484375,29.1400146484375 425.572021484375,58.959991455078125 423.35699462890625,58.959991455078125 423.35699462890625,44.98699951171875 404.27197265625,44.98699951171875 404.27197265625,58.959991455078125 402.0570068359375,58.959991455078125 " fill="#FFFFFF" clip-rule="evenodd" fill-rule="evenodd"/>
  <path id="svg_5" d="m348.338,59.472c-2.131,0 -4.104,-0.398 -5.922,-1.193c-1.817,-0.795 -3.387,-1.882 -4.707,-3.259c-1.321,-1.377 -2.351,-3.003 -3.089,-4.878c-0.738,-1.874 -1.107,-3.876 -1.107,-6.006l0,-0.085c0,-2.102 0.376,-4.089 1.129,-5.964c0.752,-1.875 1.788,-3.515 3.109,-4.92c1.32,-1.406 2.89,-2.513 4.707,-3.323c1.818,-0.81 3.806,-1.214 5.965,-1.214c1.335,0 2.542,0.114 3.62,0.341c1.08,0.228 2.081,0.554 3.004,0.98c0.923,0.426 1.789,0.93 2.599,1.512c0.81,0.583 1.598,1.229 2.364,1.938l-1.576,1.619c-0.653,-0.625 -1.335,-1.207 -2.045,-1.747s-1.47,-1.001 -2.279,-1.384c-0.809,-0.384 -1.689,-0.688 -2.641,-0.916c-0.952,-0.228 -1.981,-0.341 -3.089,-0.341c-1.789,0 -3.451,0.341 -4.984,1.022s-2.861,1.626 -3.983,2.833c-1.121,1.207 -2.002,2.621 -2.641,4.239c-0.64,1.619 -0.959,3.365 -0.959,5.24l0,0.085c0,1.875 0.327,3.628 0.98,5.261s1.54,3.053 2.662,4.26s2.449,2.158 3.982,2.854c1.534,0.696 3.196,1.044 4.985,1.044c2.158,0 4.032,-0.397 5.623,-1.193c1.59,-0.795 3.138,-1.945 4.644,-3.45l1.491,1.448c-0.796,0.767 -1.612,1.47 -2.45,2.109s-1.732,1.186 -2.684,1.64s-1.98,0.81 -3.089,1.065c-1.106,0.255 -2.313,0.383 -3.619,0.383z" fill="#FFFFFF" clip-rule="evenodd" fill-rule="evenodd"/>
  <path id="svg_6" d="m276.726,28.927l2.13,0l13.888,30.033l-2.428,0l-3.792,-8.35l-17.594,0l-3.792,8.35l-2.3,0l13.888,-30.033l0,0zm8.86,19.681l-7.838,-17.253l-7.881,17.253l15.719,0z" fill="#FFFFFF" clip-rule="evenodd" fill-rule="evenodd"/>
  <path id="svg_7" d="m201.151,29.14l10.821,0c1.647,0 3.145,0.206 4.494,0.618c1.349,0.412 2.514,1.008 3.493,1.789c0.98,0.781 1.74,1.732 2.279,2.854c0.54,1.122 0.81,2.407 0.81,3.855l0,0.085c0,1.562 -0.313,2.939 -0.937,4.132c-0.625,1.193 -1.47,2.187 -2.535,2.982c-1.065,0.795 -2.3,1.392 -3.706,1.789c-1.406,0.398 -2.889,0.597 -4.452,0.597l-8.051,0l0,11.119l-2.215,0l0,-29.82l-0.001,0zm10.395,16.699c1.392,0 2.655,-0.17 3.792,-0.511c1.136,-0.348 2.108,-0.838 2.918,-1.484c0.81,-0.639 1.441,-1.42 1.896,-2.336c0.454,-0.909 0.682,-1.924 0.682,-3.039l0,-0.085c0,-1.2 -0.22,-2.251 -0.661,-3.153c-0.44,-0.895 -1.058,-1.647 -1.853,-2.25c-0.795,-0.597 -1.747,-1.051 -2.854,-1.371c-1.107,-0.312 -2.329,-0.468 -3.663,-0.468l-8.435,0l0,14.697l8.178,0z" fill="#FFFFFF" clip-rule="evenodd" fill-rule="evenodd"/>
  <path id="svg_8" d="m143.044,28.927l2.13,0l13.888,30.033l-2.428,0l-3.792,-8.35l-17.594,0l-3.792,8.35l-2.301,0l13.889,-30.033l0,0zm8.861,19.681l-7.839,-17.253l-7.881,17.253l15.72,0z" fill="#FFFFFF" clip-rule="evenodd" fill-rule="evenodd"/>
  <path id="svg_9" d="m495.67,86.706c0,7.213 -3.147,11.758 -9.443,13.634l11.445,15.886l-9.382,0l-10.444,-14.697l-9.693,0l0,14.697l-7.38,0l0,-43.716l16.261,0c6.671,0 11.444,1.126 14.322,3.377c2.875,2.252 4.314,5.858 4.314,10.819l0,0zm-18.324,8.131c4.169,0 7.005,-0.646 8.506,-1.939c1.501,-1.292 2.251,-3.366 2.251,-6.223c0,-2.855 -0.771,-4.815 -2.313,-5.878c-1.543,-1.064 -4.295,-1.596 -8.256,-1.596l-9.381,0l0,15.636l9.193,0z" fill="#FFFFFF" clip-rule="evenodd" fill-rule="evenodd"/>
  <path id="svg_10" d="m446.538,110.19c-4.419,4.315 -9.881,6.473 -16.386,6.473c-6.504,0 -11.966,-2.157 -16.385,-6.473c-4.42,-4.315 -6.63,-9.694 -6.63,-16.136s2.21,-11.82 6.63,-16.136c4.419,-4.314 9.881,-6.473 16.385,-6.473c6.505,0 11.967,2.158 16.386,6.473c4.42,4.315 6.63,9.694 6.63,16.136s-2.21,11.821 -6.63,16.136l0,0zm-5.409,-27.361c-2.981,-3.086 -6.64,-4.628 -10.977,-4.628c-4.336,0 -7.994,1.542 -10.976,4.628c-2.98,3.085 -4.472,6.827 -4.472,11.226s1.491,8.141 4.472,11.227c2.981,3.085 6.64,4.628 10.976,4.628c4.337,0 7.995,-1.543 10.977,-4.628c2.98,-3.086 4.471,-6.828 4.471,-11.227s-1.491,-8.141 -4.471,-11.226z" fill="#FFFFFF" clip-rule="evenodd" fill-rule="evenodd"/>
  <polygon id="svg_11" points="391.59100341796875,79.26400756835938 391.59100341796875,116.22601318359375 384.21099853515625,116.22601318359375 384.21099853515625,79.26400756835938 370.9520263671875,79.26400756835938 370.9520263671875,72.510009765625 404.8489990234375,72.510009765625 404.8489990234375,79.26400756835938 " fill="#FFFFFF" clip-rule="evenodd" fill-rule="evenodd"/>
  <path id="svg_12" d="m340.02,106.281l-4.378,9.944l-7.88,0l19.263,-43.716l7.88,0l19.263,43.716l-7.88,0l-4.379,-9.944l-21.889,0l0,0zm18.886,-6.817l-7.942,-18.011l-7.942,18.011l15.884,0z" fill="#FFFFFF" clip-rule="evenodd" fill-rule="evenodd"/>
  <path id="svg_13" d="m311.026,116.226l-19.138,0l0,-43.716l17.012,0c2.96,0 5.514,0.354 7.661,1.063c2.146,0.709 3.741,1.668 4.784,2.878c2.001,2.251 3.002,4.795 3.002,7.63c0,3.418 -1.084,5.962 -3.253,7.63c-0.792,0.584 -1.334,0.948 -1.626,1.094c-0.292,0.146 -0.813,0.386 -1.563,0.72c2.71,0.584 4.868,1.803 6.474,3.658c1.604,1.855 2.407,4.159 2.407,6.911c0,3.043 -1.042,5.732 -3.127,8.067c-2.46,2.709 -6.671,4.065 -12.633,4.065l0,0zm-11.757,-6.818l11.57,0c2.71,0 4.784,-0.427 6.223,-1.281c1.438,-0.855 2.157,-2.471 2.157,-4.848c0,-3.877 -3.105,-5.815 -9.318,-5.815l-10.632,0l0,11.944l0,0zm0,-18.762l9.381,0c5.337,0 8.005,-1.813 8.005,-5.441c0,-2.084 -0.646,-3.585 -1.938,-4.503c-1.292,-0.917 -3.294,-1.376 -6.004,-1.376l-9.443,0l0,11.32l-0.001,0z" fill="#FFFFFF" clip-rule="evenodd" fill-rule="evenodd"/>
  <path id="svg_14" d="m255.39,106.219c2.001,2.335 4.711,3.502 8.13,3.502s6.129,-1.167 8.13,-3.502c2.002,-2.335 3.002,-5.504 3.002,-9.506l0,-24.203l7.38,0l0,24.516c0,6.296 -1.729,11.143 -5.19,14.541c-3.461,3.397 -7.901,5.097 -13.321,5.097s-9.861,-1.699 -13.321,-5.097c-3.461,-3.398 -5.191,-8.245 -5.191,-14.541l0,-24.516l7.38,0l0,24.203c-0.001,4.002 1,7.171 3.001,9.506z" fill="#FFFFFF" clip-rule="evenodd" fill-rule="evenodd"/>
  <path id="svg_15" d="m221.206,109.533c2.543,0 4.732,-0.427 6.567,-1.281c1.834,-0.855 3.752,-2.221 5.753,-4.097l4.753,4.878c-4.628,5.128 -10.247,7.692 -16.854,7.692c-6.609,0 -12.091,-2.126 -16.448,-6.379s-6.536,-9.632 -6.536,-16.136s2.22,-11.924 6.661,-16.26c4.44,-4.337 10.048,-6.505 16.823,-6.505c6.775,0 12.435,2.502 16.979,7.505l-4.69,5.129c-2.084,-2.002 -4.055,-3.398 -5.91,-4.19c-1.855,-0.792 -4.034,-1.188 -6.536,-1.188c-4.419,0 -8.13,1.428 -11.132,4.284c-3.002,2.855 -4.503,6.504 -4.503,10.944s1.491,8.151 4.472,11.132c2.981,2.982 6.515,4.472 10.601,4.472z" fill="#FFFFFF" clip-rule="evenodd" fill-rule="evenodd"/>
  <polygon id="svg_16" points="183.45599365234375,72.510009765625 190.83599853515625,72.510009765625 190.83599853515625,116.22601318359375 182.83099365234375,116.22601318359375 158.06500244140625,84.33001708984375 158.06500244140625,116.22601318359375 150.68600463867188,116.22601318359375 150.68600463867188,72.510009765625 158.06500244140625,72.510009765625 183.45599365234375,105.155029296875 " fill="#FFFFFF" clip-rule="evenodd" fill-rule="evenodd"/>
  <rect id="svg_17" height="43.716" width="7.379" fill="#FFFFFF" clip-rule="evenodd" fill-rule="evenodd" y="72.51" x="132.887"/>
  <path id="svg_18" d="m69.331,30.957c-0.003,-0.324 -0.008,-0.649 -0.016,-0.978c0.067,0.107 0.256,0.435 0.569,0.978l-0.553,0l0,0zm-11.763,34.23c-3.432,6.382 -5.389,13.041 -5.889,19.971c-0.445,6.171 0.222,11.492 2.021,15.953c0.246,0.607 0.484,1.168 0.722,1.688c-1.422,-1.006 -2.779,-2.055 -4.073,-3.149c-0.109,-0.086 -0.188,-0.122 -0.238,-0.109c1.699,2.717 3.816,5.179 6.354,7.387c0.392,0.342 1.046,0.504 1.207,1.007c0.459,1.443 -0.789,14.4 3.219,17.419c2.549,1.918 13.815,-0.494 17.293,-1.617c18.147,-5.861 32.222,-22.622 30.128,-46.777c-2.296,-26.491 -19.748,-53.431 -37.154,-59.906c-4.705,-1.751 -5.749,-1.591 -10.635,0.499c-16.984,7.263 -33.667,33.549 -35.908,59.407c-2.153,24.846 12.797,41.868 31.693,47.252c0.511,0.146 1.005,0.28 1.485,0.407c-0.487,-1.007 -0.885,-2.148 -1.208,-3.356c-19.792,-5.886 -30.863,-23.434 -29.076,-44.051c1.708,-19.71 14.918,-48.76 34.154,-56.987c4.021,-1.718 4.402,-1.963 8.479,-0.446c19.745,7.344 33.537,37.397 35.273,57.434c1.857,21.422 -10.222,39.447 -31.112,44.609c-2.101,0.519 -3.923,0.862 -5.629,1.033c-5.413,0.543 -7.295,1.501 -8.288,-4.136c-2.187,-12.433 -0.534,-34.932 4.876,-43.565c0.043,-0.627 0.007,0.521 -0.4,1.501c-0.188,0.44 -0.309,0.709 -0.362,0.847c-3.24,7.422 -5.048,28.953 -3.506,33.042c-0.446,-1.465 0.353,-4.55 1.51,-5.183l0.663,-0.464c3.628,-2.613 5.973,-6.718 8.595,-11.917c-0.045,-0.072 -0.13,-0.063 -0.252,0.025c-1.224,1.023 -2.486,1.942 -3.783,2.755c2.953,-3.102 5.531,-7.062 7.741,-11.886c-0.06,-0.088 -0.162,-0.072 -0.308,0.042c-0.872,0.787 -1.76,1.528 -2.667,2.224c3.708,-6.714 6.974,-14.491 7.316,-23.379c0.169,-5.753 -0.883,-11.296 -3.159,-16.59c-0.785,-1.81 -1.88,-3.973 -3.292,-6.525c-2.087,-3.763 -3.215,-5.801 -3.395,-6.097c0.093,8.157 -1.346,14.788 -4.315,19.84c-0.766,1.341 -2.125,3.296 -4.089,5.859c-1.824,2.39 -3.162,4.369 -3.991,5.939z" fill="#FFFFFF" clip-rule="evenodd" fill-rule="evenodd"/>
 </g>
</svg>