<svg
  xmlns="http://www.w3.org/2000/svg"
  xmlns:xlink="http://www.w3.org/1999/xlink"
  fill="none"
  version="1.1"
  width="20.1971435546875"
  height="20"
  viewBox="0 0 20.1971435546875 20"
>
  <defs>
    <linearGradient
      x1="0.9465906620025635"
      y1="0.06481249630451202"
      x2="0.011530837044119835"
      y2="1.0002589225769043"
      id="master_svg0_4079_70787"
    >
      <stop offset="0%" stop-color="#AFC9FF" stop-opacity="1" />
      <stop offset="100%" stop-color="#2861D8" stop-opacity="1" />
    </linearGradient>
    <linearGradient
      x1="0.9465906620025635"
      y1="0.06481249630451202"
      x2="0.011530837044119835"
      y2="1.0002589225769043"
      id="master_svg1_4079_70787"
    >
      <stop offset="0%" stop-color="#AFC9FF" stop-opacity="1" />
      <stop offset="100%" stop-color="#2861D8" stop-opacity="1" />
    </linearGradient>
    <linearGradient
      x1="0.9465906620025635"
      y1="0.06481249630451202"
      x2="0.011530837044119835"
      y2="1.0002589225769043"
      id="master_svg2_4079_70787"
    >
      <stop offset="0%" stop-color="#AFC9FF" stop-opacity="1" />
      <stop offset="100%" stop-color="#2861D8" stop-opacity="1" />
    </linearGradient>
  </defs>
  <g>
    <g>
      <path
        d="M15.347228413677216,16.478401351623535L18.004728413677217,16.478401351623535C16.875228413677217,17.475081351623537,14.084828413677215,18.405321351623535,10.165028413677216,18.405321351623535C4.982858413677215,18.405321351623535,2.9232784136772154,16.478401351623535,1.5945184136772155,15.481728351623534C1.5945184136772155,15.481728351623534,0.9301334136772156,16.079731351623536,0.3986284136772156,16.611291351623535C2.5910884136772157,19.003321351623534,5.780108413677215,20.000001351623535,10.165028413677216,20.000001351623535C13.354028413677215,20.000001351623535,16.675928413677216,19.335551351623536,18.602628413677216,18.006641351623536L18.602628413677216,19.667771351623536L20.197128413677216,19.667771351623536L20.197128413677216,14.883721351623535L15.413628413677216,14.883721351623535L15.413628413677216,16.478401351623535L15.347228413677216,16.478401351623535Z"
        fill="url(#master_svg0_4079_70787)"
        fill-opacity="1"
      />
    </g>
    <g>
      <path
        d="M10.165000000000056,0C6.976000000000057,0,3.587660000000057,0.664452,1.7273900000000568,1.99336L1.7273900000000568,0.332226L0.13287600000005684,0.332226L0.13287600000005684,5.11628L4.916420000000056,5.11628L4.916420000000056,3.52159L2.258890000000057,3.52159C3.3883400000000568,2.52492,6.178740000000057,1.59468,10.098600000000056,1.59468C15.280800000000056,1.59468,18.536200000000058,2.92359,18.602700000000056,5.31561L18.602700000000056,9.03654C18.602700000000056,11.4286,15.413600000000057,12.8239,10.165000000000056,12.8239C4.9828600000000565,12.8239,1.7273900000000568,11.1628,1.7273900000000568,9.90033C1.7273900000000568,8.63787,4.916420000000056,6.97674,10.165000000000056,6.97674C11.958900000000057,6.97674,13.686200000000056,7.17608,15.147900000000057,7.6412C15.214300000000057,7.6412,15.280800000000056,7.70764,15.280800000000056,7.70764C15.280800000000056,7.70764,15.413600000000057,7.77409,15.413600000000057,7.77409C15.612900000000057,7.30897,15.878700000000057,6.71096,16.078000000000056,6.37874C15.878700000000057,6.31229,15.679400000000056,6.24585,15.480100000000057,6.24585C13.885600000000057,5.78073,12.025300000000056,5.5814,10.032100000000057,5.5814C5.182170000000057,5.5814,5.684341886080802e-14,7.17608,5.684341886080802e-14,10.0332C5.684341886080802e-14,12.9568,5.182170000000057,14.485,10.032100000000057,14.485C14.882100000000056,14.485,20.064300000000056,12.8904,20.064300000000056,10.0332L20.064300000000056,4.51827C20.130700000000058,1.59468,15.015000000000057,0,10.165000000000056,0Z"
        fill="url(#master_svg1_4079_70787)"
        fill-opacity="1"
      />
    </g>
    <g>
      <path
        d="M10.16502490814209,12.026576699829102C9.03557790814209,12.026576699829102,8.10544490814209,11.096346699829102,8.10544490814209,9.9667766998291C8.10544490814209,8.837209699829101,9.03557790814209,7.906976699829102,10.16502490814209,7.906976699829102C11.294474908142089,7.906976699829102,12.22460490814209,8.837209699829101,12.22460490814209,9.9667766998291C12.22460490814209,11.096346699829102,11.294474908142089,12.026576699829102,10.16502490814209,12.026576699829102ZM9.56711490814209,10.0332166998291C9.56711490814209,10.1661066998291,9.63355490814209,10.298996699829102,9.69999490814209,10.431886699829102C9.83286490814209,10.564786699829101,9.96574490814209,10.631226699829101,10.16505490814209,10.631226699829101C10.49724490814209,10.631226699829101,10.82943490814209,10.365446699829102,10.82943490814209,9.9667766998291C10.82943490814209,9.833886699829101,10.76300490814209,9.700996699829101,10.69656490814209,9.568106699829102L10.63012490814209,9.501656699829102C10.56368490814209,9.435216699829102,10.43080490814209,9.368766699829102,10.23149490814209,9.368766699829102C9.89930490814209,9.368766699829102,9.56711490814209,9.634546699829102,9.56711490814209,10.0332166998291Z"
        fill-rule="evenodd"
        fill="url(#master_svg2_4079_70787)"
        fill-opacity="1"
      />
    </g>
  </g>
</svg>
