<svg
  xmlns="http://www.w3.org/2000/svg"
  xmlns:xlink="http://www.w3.org/1999/xlink"
  fill="none"
  version="1.1"
  width="20"
  height="22.4072265625"
  viewBox="0 0 20 22.4072265625"
>
  <defs>
    <linearGradient
      x1="0.9465906620025635"
      y1="0.06481249630451202"
      x2="0.011530837044119835"
      y2="1.0002589225769043"
      id="master_svg0_4079_95987"
    >
      <stop offset="0%" stop-color="#AFC9FF" stop-opacity="1" />
      <stop offset="100%" stop-color="#2861D8" stop-opacity="1" />
    </linearGradient>
    <linearGradient
      x1="0.9465906620025635"
      y1="0.06481249630451202"
      x2="0.011530837044119835"
      y2="1.0002589225769043"
      id="master_svg1_4079_95987"
    >
      <stop offset="0%" stop-color="#AFC9FF" stop-opacity="1" />
      <stop offset="100%" stop-color="#2861D8" stop-opacity="1" />
    </linearGradient>
    <linearGradient
      x1="0.9465906620025635"
      y1="0.06481249630451202"
      x2="0.011530837044119835"
      y2="1.0002589225769043"
      id="master_svg2_4079_95987"
    >
      <stop offset="0%" stop-color="#AFC9FF" stop-opacity="1" />
      <stop offset="100%" stop-color="#2861D8" stop-opacity="1" />
    </linearGradient>
  </defs>
  <g>
    <g>
      <path
        d="M1.678539999999943,18.5389L15.252799999999944,18.5389L15.252799999999944,13.4298L17.004399999999944,11.6781L17.004399999999944,20.6556C17.004399999999944,21.6044,16.274599999999943,22.4073,15.325799999999942,22.4073L1.678539999999943,22.4073C0.7298009999999432,22.4073,-5.684341886080802e-14,21.6044,-5.684341886080802e-14,20.6556L-5.684341886080802e-14,1.75171C-5.684341886080802e-14,0.802867,0.7298009999999432,0,1.678539999999943,0L15.325799999999942,0C16.274599999999943,0,17.004399999999944,0.802867,17.004399999999944,1.75171L17.004399999999944,7.07983L15.325799999999942,8.83154L15.325799999999942,1.89769L1.678539999999943,1.89769L1.678539999999943,18.5389ZM7.662959999999943,20.5826C7.662959999999943,21.0936,8.027859999999944,21.4585,8.538719999999943,21.4585C9.049589999999943,21.4585,9.414489999999944,21.0206,9.414489999999944,20.5826C9.414489999999944,20.0717,9.049589999999943,19.7068,8.538719999999943,19.7068C8.027859999999944,19.7068,7.662959999999943,20.0717,7.662959999999943,20.5826Z"
        fill-rule="evenodd"
        fill="url(#master_svg0_4079_95987)"
        fill-opacity="1"
      />
    </g>
    <g>
      <path
        d="M7.5899331692504886,17.15215757446289C8.100793169250489,17.15215757446289,8.465693169250489,16.78721757446289,8.465693169250489,16.27629757446289L8.465693169250489,15.18147757446289C8.465693169250489,15.03550757446289,8.611653169250488,14.88952757446289,8.757613169250488,14.88952757446289L10.947013169250488,14.88952757446289C11.165953169250487,14.88952757446289,11.311913169250488,14.74355757446289,11.311913169250488,14.52458757446289C11.311913169250488,14.305627574462891,11.165953169250487,14.159647574462891,10.947013169250488,14.159647574462891L8.757613169250488,14.159647574462891C8.173773169250488,14.159647574462891,7.662913169250488,14.67056757446289,7.662913169250488,15.25446757446289L7.662913169250488,16.349287574462892C7.662913169250488,16.42227757446289,7.5899331692504886,16.42227757446289,7.5899331692504886,16.42227757446289C7.516953169250488,16.42227757446289,7.516953169250488,16.349287574462892,7.516953169250488,16.349287574462892L7.516953169250488,13.94068757446289C7.516953169250488,13.35678457446289,7.0790731692504885,12.91885757446289,6.4952231692504885,12.91885757446289C5.911383169250488,12.91885757446289,5.473503169250488,13.35678457446289,5.473503169250488,13.94068757446289L5.473503169250488,14.816547574462891C5.473503169250488,14.96251757446289,5.400523169250489,15.108497574462891,5.181583169250488,15.108497574462891L2.9192031692504883,15.108497574462891C2.7002631692504884,15.108497574462891,2.5543031692504883,15.25446757446289,2.5543031692504883,15.47343757446289C2.5543031692504883,15.692397574462891,2.7002631692504884,15.838377574462891,2.9192031692504883,15.838377574462891L5.181583169250488,15.838377574462891C5.7654231692504885,15.838377574462891,6.203303169250488,15.400447574462891,6.203303169250488,14.816547574462891L6.203303169250488,13.94068757446289C6.203303169250488,13.79471257446289,6.276283169250489,13.648736574462891,6.4952231692504885,13.648736574462891C6.714163169250488,13.648736574462891,6.787153169250488,13.72172457446289,6.787153169250488,13.94068757446289L6.787153169250488,16.349287574462892C6.714163169250488,16.78721757446289,7.152053169250488,17.15215757446289,7.5899331692504886,17.15215757446289Z"
        fill="url(#master_svg1_4079_95987)"
        fill-opacity="1"
      />
    </g>
    <g>
      <path
        d="M19.850583933410647,7.2258020090026855L19.266743933410645,6.641899009002685C19.120783933410642,6.495922909002686,18.974823933410644,6.4229350090026855,18.755883933410644,6.4229350090026855C18.609923933410645,6.4229350090026855,18.390983933410645,6.495922909002686,18.245023933410643,6.641899009002685L12.260653933410644,12.626905009002686C12.187673933410645,12.699895009002685,12.114693933410644,12.845875009002686,12.114693933410644,12.991845009002684L11.822773933410645,14.451605009002686C11.822773933410645,14.524595009002686,11.895754033410645,14.597575009002686,11.968733933410645,14.597575009002686L11.968733933410645,14.597575009002686L13.428333933410645,14.305625009002686C13.574293933410644,14.305625009002686,13.720253933410644,14.232635009002685,13.793233933410644,14.159655009002686L19.704623933410645,8.101655009002686C20.069523933410643,7.882695009002686,20.069523933410643,7.517755009002686,19.850583933410647,7.2258020090026855Z"
        fill="url(#master_svg2_4079_95987)"
        fill-opacity="1"
      />
    </g>
  </g>
</svg>
