<svg
  xmlns="http://www.w3.org/2000/svg"
  xmlns:xlink="http://www.w3.org/1999/xlink"
  fill="none"
  version="1.1"
  width="22.2119140625"
  height="22.2142333984375"
  viewBox="0 0 22.2119140625 22.2142333984375"
>
  <defs>
    <linearGradient
      x1="0.9465906620025635"
      y1="0.06481249630451202"
      x2="0.011530837044119835"
      y2="1.0002589225769043"
      id="master_svg0_4079_70787"
    >
      <stop offset="0%" stop-color="#AFC9FF" stop-opacity="1" />
      <stop offset="100%" stop-color="#2861D8" stop-opacity="1" />
    </linearGradient>
    <linearGradient
      x1="0.9465906620025635"
      y1="0.06481249630451202"
      x2="0.011530837044119835"
      y2="1.0002589225769043"
      id="master_svg1_4079_70787"
    >
      <stop offset="0%" stop-color="#AFC9FF" stop-opacity="1" />
      <stop offset="100%" stop-color="#2861D8" stop-opacity="1" />
    </linearGradient>
  </defs>
  <g>
    <g>
      <path
        d="M1.64268,0L20.5692,0C21.4977,0,22.2119,0.714286,22.2119,1.64286L22.2119,20.5714C22.2119,21.5,21.4977,22.2143,20.5692,22.2143L1.64268,22.2143C0.714209,22.2143,0,21.5,0,20.5714L0,1.64286C0,0.714286,0.714209,0,1.64268,0ZM2.07129,20.1429L20.2122,20.1429L20.2122,2L2.07129,2L2.07129,20.1429Z"
        fill-rule="evenodd"
        fill="url(#master_svg0_4079_70787)"
        fill-opacity="1"
      />
    </g>
    <g>
      <path
        d="M5.6422505801391605,15.142857815093993C6.21362058013916,14.928567815093993,6.49930058013916,14.214287815093993,6.21362058013916,13.714287815093993L8.64193058013916,11.285717815093994C8.999040580139159,11.428567815093995,9.427560580139161,11.428567815093995,9.78467058013916,11.142857815093993L12.998610580139161,12.928567815093995C12.92719058013916,13.142857815093993,12.998610580139161,13.428567815093995,13.14145058013916,13.642857815093993C13.42713058013916,14.214287815093993,14.14134058013916,14.357137815093994,14.64128058013916,14.071427815093994C15.21268058013916,13.785707815093994,15.35548058013916,13.071427815093994,15.06978058013916,12.571427815093994L17.28388058013916,8.642857815093993C17.56958058013916,8.714287815093995,17.926680580139163,8.642857815093993,18.14088058013916,8.428567815093995C18.64088058013916,8.071427815093994,18.783680580139162,7.3571418150939945,18.42658058013916,6.8571418150939945C18.06948058013916,6.357142215093994,17.35528058013916,6.214284815093994,16.855380580139162,6.571427815093994C16.355380580139162,6.928570815093995,16.21258058013916,7.642857815093994,16.56968058013916,8.142857815093993L14.42698058013916,11.999997815093995C14.06992058013916,11.857137815093994,13.71282058013916,11.999997815093995,13.42713058013916,12.214287815093993L10.213190580139159,10.428567815093995C10.213190580139159,10.214287815093995,10.213190580139159,10.071427815093994,10.141770580139159,9.857137815093994C9.92751058013916,9.285717815093994,9.21330058013916,8.999997815093995,8.71335058013916,9.285717815093994C8.14198058013916,9.499997815093995,7.856300580139161,10.214287815093995,8.14198058013916,10.714287815093993L5.71367058013916,13.142857815093993C5.42799058013916,12.999997815093995,5.14230658013916,12.999997815093995,4.8566225801391605,13.142857815093993C4.28525558013916,13.357137815093994,3.9995715801391603,14.071427815093994,4.28525558013916,14.571427815093994C4.42809758013916,15.071427815093994,5.07088558013916,15.357147815093994,5.6422505801391605,15.142857815093993Z"
        fill="url(#master_svg1_4079_70787)"
        fill-opacity="1"
      />
    </g>
  </g>
</svg>
