<svg
  xmlns="http://www.w3.org/2000/svg"
  xmlns:xlink="http://www.w3.org/1999/xlink"
  fill="none"
  version="1.1"
  width="19.001708984375"
  height="25"
  viewBox="0 0 19.001708984375 25"
>
  <defs>
    <linearGradient
      x1="0.9465906620025635"
      y1="0.06481249630451202"
      x2="0.011530837044119835"
      y2="1.0002589225769043"
      id="master_svg0_4079_70787"
    >
      <stop offset="0%" stop-color="#AFC9FF" stop-opacity="1" />
      <stop offset="100%" stop-color="#2861D8" stop-opacity="1" />
    </linearGradient>
    <linearGradient
      x1="0.9465906620025635"
      y1="0.06481249630451202"
      x2="0.011530837044119835"
      y2="1.0002589225769043"
      id="master_svg1_4079_70787"
    >
      <stop offset="0%" stop-color="#AFC9FF" stop-opacity="1" />
      <stop offset="100%" stop-color="#2861D8" stop-opacity="1" />
    </linearGradient>
  </defs>
  <g>
    <g>
      <path
        d="M17.502,10.7143C17.9305,11.5714,18.2876,12.2857,18.5019,13C18.7875,13.8571,18.9304,14.7143,19.0018,15.5C19.0018,18,17.9305,20.4286,16.2164,22.2143C14.4309,24.0714,12.0025,25,9.50282,25C8.14582,25,6.93166,24.7143,5.71751,24.2143C4.57477,23.7857,3.57488,23.0714,2.64641,22.1429C0.860884,20.3571,-0.0675883,18,0.00383265,15.5C0.0752536,13.5714,0.646621,11.7857,1.86078,9.85714L7.64587,0.928571C8.0744,0.357143,8.71719,0,9.43139,0C10.1456,0,10.7884,0.357143,11.2169,0.928571L17.502,10.7143ZM9.43142,23.1429C11.4312,23.1429,13.3596,22.3571,14.7166,20.9286C16.145,19.5,16.8592,17.6429,17.002,15.6429C17.002,14.5,16.6449,13.4286,15.7879,11.7857L9.64568,2.07143C9.57426,2,9.50284,2,9.43142,2C9.35999,2,9.28857,2,9.28857,2.07143L3.50348,11.0714C2.43217,12.6429,2.00364,14.0714,1.93222,15.7143C1.8608,17.7143,2.64643,19.5714,4.00343,20.9286C4.71764,21.6429,5.50327,22.1429,6.43174,22.5714C7.43163,22.9286,8.3601,23.1429,9.43142,23.1429Z"
        fill-rule="evenodd"
        fill="url(#master_svg0_4079_70787)"
        fill-opacity="1"
      />
    </g>
    <g>
      <path
        d="M13.645225513000488,13.857143389892578C12.64533551300049,13.428571389892578,11.574025513000489,13.214285889892578,10.788395513000488,13.357142989892578C8.431505513000488,13.857143389892578,8.502925513000488,15.214288389892578,6.5745555130004885,15.214288389892578C6.0031855130004885,15.214288389892578,5.503243513000489,15.071428389892578,5.074718513000488,14.857138389892578C5.003297513000488,14.857138389892578,4.931876413000488,14.857138389892578,4.931876413000488,14.928568389892579C4.860455513000488,15.214288389892578,4.860455513000488,15.499998389892578,4.860455513000488,15.785718389892578C4.860455513000488,18.28571838989258,6.860245513000488,20.357138389892576,9.431395513000489,20.42856838989258C12.002545513000488,20.49999838989258,14.145175513000488,18.357138389892576,14.145175513000488,15.785718389892578C14.073755513000489,15.071428389892578,13.930915513000489,14.499998389892578,13.645225513000488,13.857143389892578C13.645225513000488,13.928571389892578,13.645225513000488,13.857143389892578,13.645225513000488,13.857143389892578Z"
        fill="url(#master_svg1_4079_70787)"
        fill-opacity="1"
      />
    </g>
  </g>
</svg>
